<?xml version="1.0" standalone="no"?>
<!DOCTYPE svg PUBLIC "-//W3C//DTD SVG 20010904//EN"
 "http://www.w3.org/TR/2001/REC-SVG-20010904/DTD/svg10.dtd">
<svg version="1.0" xmlns="http://www.w3.org/2000/svg"
 width="300.000000pt" height="300.000000pt" viewBox="0 0 300.000000 300.000000"
 preserveAspectRatio="xMidYMid meet">
<metadata>
Created by potrace 1.10, written by Peter Selinger 2001-2011
</metadata>
<g transform="translate(0.000000,300.000000) scale(0.100000,-0.100000)"
fill="#000000" stroke="none">
<path d="M527 2372 c-15 -17 -17 -74 -17 -618 0 -526 2 -602 16 -622 l15 -22
939 0 939 0 20 26 c21 26 21 35 21 614 0 579 0 588 -21 614 l-20 26 -938 0
c-896 0 -939 -1 -954 -18z m971 -30 c3 -17 -2 -22 -17 -22 -14 0 -21 6 -21 18
0 38 33 41 38 4z m-486 -2 l-394 -5 -28 -32 c-30 -33 -40 -33 -40 2 0 45 1 45
440 43 l415 -2 -393 -6z m1393 -590 l0 -595 -32 -3 c-40 -4 -41 2 -5 33 l27
23 -2 538 -3 538 -25 26 -25 25 -398 5 -397 6 430 -1 430 0 0 -595z m-55 -5
l0 -545 -424 0 -424 0 5 530 4 530 -25 0 -26 0 0 -530 0 -530 -425 0 -425 0
-2 545 -3 545 873 0 872 0 0 -545z m-1752 -567 l26 -28 -25 0 c-31 0 -49 17
-49 45 0 26 13 42 19 23 2 -7 15 -25 29 -40z m912 -13 c11 -13 7 -15 -25 -15
-32 0 -36 2 -25 15 7 8 18 15 25 15 7 0 18 -7 25 -15z"/>
<path d="M700 1926 l0 -216 39 0 c22 0 45 -2 53 -5 10 -4 12 11 9 76 l-3 82
56 -5 c70 -6 89 -23 105 -93 12 -54 13 -55 49 -55 20 0 47 -3 60 -6 23 -6 23
-6 8 27 -8 19 -22 55 -31 82 -17 47 -52 77 -90 77 -31 0 -14 18 23 24 47 7 71
32 79 80 8 51 -11 89 -60 117 -37 20 -58 24 -169 27 l-128 4 0 -216z m70 145
c-5 -11 -10 -46 -10 -79 0 -46 4 -63 20 -77 19 -17 19 -18 1 -44 -11 -15 -21
-42 -24 -61 -2 -19 -5 36 -5 123 -2 135 0 157 13 157 12 0 13 -4 5 -19z m173
-29 c10 -9 17 -29 17 -48 0 -46 -29 -64 -102 -64 l-58 0 0 69 0 69 63 -5 c34
-3 70 -12 80 -21z m77 -28 c0 -7 -4 -16 -10 -19 -5 -3 -10 3 -10 14 0 10 -3
28 -6 38 -5 16 -4 16 10 -1 9 -11 16 -25 16 -32z"/>
<path d="M1130 1970 c0 -114 15 -174 52 -205 61 -52 149 -19 164 61 9 51 24
51 24 1 0 -56 -17 -107 -42 -129 -25 -23 -116 -24 -144 -3 -30 22 -40 18 -52
-22 -13 -41 -9 -45 53 -70 81 -32 191 0 230 67 17 31 20 56 23 208 l4 172 -45
0 -45 0 -4 -89 c-5 -100 -23 -141 -63 -141 -41 0 -55 34 -55 137 l0 93 -50 0
-50 0 0 -80z m280 -46 c0 -41 -4 -63 -10 -59 -5 3 -10 33 -10 66 0 33 4 59 10
59 6 0 10 -29 10 -66z m-194 -105 c21 -24 9 -39 -13 -17 -9 10 -17 38 -19 70
l-3 53 9 -44 c5 -24 17 -52 26 -62z"/>
<path d="M1810 1790 c-11 -11 -20 -24 -20 -30 0 -14 38 -50 53 -50 6 0 25 7
41 15 26 14 28 14 21 -3 -4 -12 -3 -14 5 -6 16 16 2 61 -23 79 -29 20 -53 19
-77 -5z"/>
<path d="M2083 1671 c-46 -12 -80 -36 -98 -71 -15 -29 -15 -31 7 -39 57 -21
68 -22 68 -8 0 44 99 66 120 26 17 -31 -2 -46 -77 -59 -82 -14 -116 -31 -131
-65 -18 -40 -14 -71 14 -104 22 -27 32 -31 74 -31 52 0 103 31 115 70 11 34
25 22 25 -19 0 -46 7 -52 61 -56 37 -3 38 -2 28 22 -5 13 -9 71 -9 129 0 153
-25 194 -130 208 -19 2 -50 1 -67 -3z m157 -202 c0 -48 -3 -68 -11 -63 -6 3
-8 16 -5 28 3 12 -1 34 -9 49 -11 22 -12 32 -3 47 20 31 28 13 28 -61z m-50
-2 c0 -24 -41 -69 -74 -81 -21 -7 -66 18 -66 37 0 25 18 39 66 52 69 19 74 18
74 -8z"/>
<path d="M1530 1500 c0 -128 3 -172 13 -175 6 -2 28 -6 47 -9 l35 -6 0 111 c0
109 0 111 28 135 29 25 71 32 82 14 18 -29 22 -4 16 93 -1 4 -19 7 -40 7 -46
0 -76 -30 -87 -86 -9 -50 -26 -41 -24 14 3 72 3 72 -35 72 l-35 0 0 -170z m51
-45 l-6 -70 -8 73 c-4 41 -4 78 -1 84 14 22 20 -18 15 -87z"/>
<path d="M1800 1501 c0 -111 4 -172 11 -177 6 -3 31 -7 55 -9 37 -2 44 0 40
12 -3 8 -6 89 -6 179 l0 164 -50 0 -50 0 0 -169z"/>
<path d="M290 1039 c0 -20 10 -40 29 -60 l29 -29 1134 0 c1058 0 1134 2 1154
18 26 21 44 54 44 81 0 21 -1 21 -491 21 -486 0 -491 0 -486 -20 5 -20 0 -20
-223 -20 -223 0 -228 0 -223 20 5 20 0 20 -481 20 l-486 0 0 -31z m168 -15
c18 -5 20 -9 11 -20 -14 -17 -72 -18 -102 -2 -21 11 -21 11 -2 19 25 9 63 11
93 3z m759 -5 c22 -8 24 -12 13 -19 -19 -12 -550 -13 -569 -1 -7 5 -10 14 -7
20 10 15 523 15 563 0z m1383 1 c8 -5 11 -13 6 -17 -9 -9 -829 -17 -866 -8
-24 6 -24 7 -6 21 16 12 92 14 435 14 239 0 422 -4 431 -10z m-1980 -10 c0 -5
-25 -10 -55 -10 -30 0 -55 5 -55 10 0 6 25 10 55 10 30 0 55 -4 55 -10z"/>
</g>
</svg>
